<svg id="Camada_1" data-name="Camada 1" xmlns="http://www.w3.org/2000/svg" viewBox="0 0 954.67 395.26"><defs><style>.cls-1{fill:#3772c9;}</style></defs><path class="cls-1" d="M374.38,214.11H73.55a47.21,47.21,0,0,0-47.22,47.22V562.16a47.21,47.21,0,0,0,47.22,47.22H374.38a47.21,47.21,0,0,0,47.22-47.22V261.33A47.21,47.21,0,0,0,374.38,214.11ZM156,526.08l-35.9-1.7a10.78,10.78,0,0,1-9.48-14.95l58-138.66A13.55,13.55,0,0,0,156.15,352l-16.29,2.16a10.62,10.62,0,0,1-6.65-2.26l-14.43-20.65c-5.45-5.88-4.29-18,5.24-19.25l112.82-14.85a10.8,10.8,0,0,1,11.46,14.71l-81.74,207.4A10.87,10.87,0,0,1,156,526.08Zm171.31.38H196.89a10.83,10.83,0,0,1-10.09-14.72l79.38-206.83a10.74,10.74,0,0,1,14-6.18l29.48,11.51a10.79,10.79,0,0,1,6,14.24L264.93,447.11a13.56,13.56,0,0,0,12.52,18.74h34.72a10.86,10.86,0,0,1,10.09,6.93l15.14,38.91A10.82,10.82,0,0,1,327.31,526.46Z" transform="translate(-26.33 -214.11)"/><polygon points="523.05 137.5 585.54 137.5 591.83 106.47 529.25 106.47 535.44 75.43 606.43 75.43 612.72 44.2 501.57 44.2 473.18 186.17 513.34 186.17 523.05 137.5"/><path d="M673.94,278.19q11.34,0,18.25-6.39a21.29,21.29,0,0,0,6.89-16.33,16.16,16.16,0,0,0-6.08-13q-6.09-5.07-16-5.07-11.37,0-18.16,6.19A20.08,20.08,0,0,0,652,259.12a17.91,17.91,0,0,0,5.88,13.49Q663.79,278.19,673.94,278.19Z" transform="translate(-26.33 -214.11)"/><polygon points="639.69 186.17 661.8 76.04 623.26 76.04 601.36 186.17 639.69 186.17"/><path d="M729.71,400.28l10.55-51.92q2.84-13.58,10.75-19.67t20.48-6.09c1.49,0,2.87,0,4.16.11s2.8.24,4.56.5l6.69-34.88q-16,0-28.09,5.57A38.55,38.55,0,0,0,747,302.38l2.36-12.23h-36.3L691.17,400.28Z" transform="translate(-26.33 -214.11)"/><path d="M829.7,318.44q4-2.32,13.59-2.33a86.69,86.69,0,0,1,15.92,1.63,50.4,50.4,0,0,1,16.73,6.49l13.59-27a74.29,74.29,0,0,0-19.07-6.59,109.06,109.06,0,0,0-22.71-2.33,91.84,91.84,0,0,0-29.92,4.56q-13.27,4.56-21,13.49t-7.7,22.11q0,9.31,4.05,14.9a27.75,27.75,0,0,0,10.55,8.73,59.58,59.58,0,0,0,13.79,4.66q7.31,1.53,13.79,2.54A57.34,57.34,0,0,1,842,361.85c2.77,1,4.16,2.61,4.16,4.77s-1.35,4.23-4.06,5.78-7.23,2.33-13.59,2.33a81,81,0,0,1-20.07-2.64,59,59,0,0,1-18.06-7.7l-14,27q7.1,4.47,20.08,7.61a116.19,116.19,0,0,0,27.38,3.14,94.63,94.63,0,0,0,29.81-4.36q13.18-4.37,21-13.28t7.81-22.11q0-9.33-4.15-14.81A28.63,28.63,0,0,0,867.83,339a58,58,0,0,0-13.69-4.56q-7.41-1.52-13.79-2.74a61,61,0,0,1-10.55-2.84q-4.15-1.62-4.16-4.87T829.7,318.44Z" transform="translate(-26.33 -214.11)"/><path d="M950.26,323.21h25.06l5.68-28.8H956l5.73-28.8H923.2l-5.73,28.8h-16l-5.89,28.8h16.14l-7.21,36.31q-2.64,13.38,1.21,23a28.12,28.12,0,0,0,12.88,14.6q9,5,22,5a75.69,75.69,0,0,0,15-1.52,45.11,45.11,0,0,0,13.79-5.18l-5.27-26.36a26.25,26.25,0,0,1-5.58,2.44,20.65,20.65,0,0,1-5.78.81q-5.88,0-8.31-3.35t-1.43-9.63Z" transform="translate(-26.33 -214.11)"/><polygon points="516.89 228.15 476.73 228.15 448.34 370.13 556.24 370.13 562.73 338.28 494.98 338.28 516.89 228.15"/><path d="M660.86,426.44q-6.09-5.06-16-5.06-11.36,0-18.15,6.18a20.11,20.11,0,0,0-6.8,15.52,17.88,17.88,0,0,0,5.89,13.48q5.88,5.58,16,5.58,11.36,0,18.25-6.39a21.27,21.27,0,0,0,6.9-16.33A16.16,16.16,0,0,0,660.86,426.44Z" transform="translate(-26.33 -214.11)"/><polygon points="569.21 370.13 607.54 370.13 629.65 260 591.12 260 569.21 370.13"/><path d="M726.46,465.08q3.56-3.54,10-3.55A19.74,19.74,0,0,1,747.86,465l14.81-27.18a35.67,35.67,0,0,0-11.77-4.46,73,73,0,0,0-14.8-1.42q-21.92,0-34.89,11.56t-16.83,30.63l-.86,4.26H667.34l-5.88,28.8h16.28l-15.47,77.07h38.54l15.34-77.07h25l5.68-28.8H721l.45-2Q722.92,468.63,726.46,465.08Z" transform="translate(-26.33 -214.11)"/><path d="M818,449.57H779.44l-5.73,28.8h-16l-5.89,28.8H768l-7.21,36.3q-2.64,13.38,1.21,23a28.13,28.13,0,0,0,12.88,14.61q9,5,22,5a75.78,75.78,0,0,0,15-1.53,44.83,44.83,0,0,0,13.79-5.17L820.41,553a26.25,26.25,0,0,1-5.58,2.44,20.29,20.29,0,0,1-5.78.81c-3.93,0-6.69-1.11-8.32-3.35s-2.1-5.44-1.42-9.63l7.19-36.1h25.06l5.68-28.8h-25Z" transform="translate(-26.33 -214.11)"/></svg>