<svg id="Camada_1" data-name="Camada 1" xmlns="http://www.w3.org/2000/svg" viewBox="0 0 960 960"><defs><style>.cls-1{fill:#3772c9;}</style></defs><path class="cls-1" d="M871.66,20H141A114.65,114.65,0,0,0,26.33,134.67V865.33A114.65,114.65,0,0,0,141,980H871.66A114.65,114.65,0,0,0,986.33,865.33V134.67A114.65,114.65,0,0,0,871.66,20ZM341.25,777.69l-87.17-4.12a26.17,26.17,0,0,1-23-36.32L372,400.48a32.92,32.92,0,0,0-30.37-45.63l-39.55,5.26a25.82,25.82,0,0,1-16.16-5.5l-35-50.16c-13.24-14.27-10.43-43.76,12.71-46.74l274-36.09a26.27,26.27,0,0,1,27.84,35.75L366.92,761.08A26.42,26.42,0,0,1,341.25,777.69Zm416.08.92H440.58a26.3,26.3,0,0,1-24.52-35.75l192.8-502.34a26.09,26.09,0,0,1,34-15l71.6,27.95a26.22,26.22,0,0,1,14.66,34.6L605.83,585.89a32.91,32.91,0,0,0,30.41,45.51h84.32a26.39,26.39,0,0,1,24.51,16.84l36.78,94.51A26.3,26.3,0,0,1,757.33,778.61Z" transform="translate(-26.33 -20)"/></svg>